<svg width="179" height="46" viewBox="0 0 179 46" fill="none" xmlns="http://www.w3.org/2000/svg">
        <path d="M4.86226 46C2.18054 46 0 43.8872 0 41.2909V4.70912C0 2.1128 2.18054 0 4.86226 0H174.138C176.818 0 179 2.1128 179 4.70912V41.2909C179 43.8872 176.819 46 174.138 46H4.86226Z" fill="black"/>
        <path d="M30.2139 14.6873C30.1185 14.6798 28.091 14.5285 28.091 14.5285C28.091 14.5285 26.6829 13.1301 26.5286 12.9746C26.4911 12.9371 26.445 12.9113 26.3947 12.8953L25.3906 36.115L33.3237 34.3906C33.3237 34.3906 30.4625 15.0336 30.4443 14.9017C30.426 14.7688 30.3092 14.6958 30.2139 14.6873Z" fill="white"/>
        <path d="M25.9551 12.9029C25.938 12.9082 25.6475 12.9972 25.1675 13.1463C24.697 11.7918 23.8676 10.5478 22.407 10.5478C22.3663 10.5478 22.3256 10.55 22.2838 10.5521C21.868 10.0031 21.3547 9.76392 20.91 9.76392C17.5087 9.76392 15.8842 14.0192 15.3741 16.1812C14.0528 16.5909 13.1141 16.8826 12.994 16.9201C12.2568 17.1517 12.2332 17.1753 12.1367 17.8702C12.0639 18.3968 10.1328 33.3354 10.1328 33.3354L25.0292 36.129L26.0344 12.8846C26.0044 12.89 25.9765 12.8964 25.9551 12.9029ZM22.1723 13.9259C22.1723 13.9774 22.1723 14.0257 22.1713 14.0739C21.3429 14.3302 20.4438 14.6091 19.5426 14.8879C20.0484 12.9329 20.9979 11.9892 21.8273 11.6331C22.0362 12.1575 22.1723 12.9104 22.1723 13.9259ZM20.8168 10.6765C20.9636 10.6765 21.1114 10.7259 21.2529 10.8235C20.1631 11.3371 18.9939 12.6294 18.501 15.2117C17.7798 15.4348 17.0747 15.6536 16.4232 15.8563C17.0018 13.8863 18.3735 10.6765 20.8168 10.6765ZM21.4029 22.1856C21.4029 22.1856 20.5221 21.7148 19.443 21.7148C17.8602 21.7148 17.7809 22.7089 17.7809 22.9588C17.7809 24.3251 21.3397 24.8484 21.3397 28.0485C21.3397 30.5665 19.7441 32.188 17.5923 32.188C15.0108 32.188 13.6895 30.5793 13.6895 30.5793L14.3807 28.294C14.3807 28.294 15.7384 29.4598 16.8829 29.4598C17.6309 29.4598 17.9352 28.8699 17.9352 28.4399C17.9352 26.6576 15.0151 26.5782 15.0151 23.6494C15.0151 21.1851 16.7832 18.8 20.3517 18.8C21.7265 18.8 22.4059 19.1947 22.4059 19.1947L21.4029 22.1856ZM23.0639 13.7972C23.0639 13.7072 23.065 13.6192 23.065 13.5227C23.065 12.6809 22.9482 12.0031 22.7606 11.4658C23.5129 11.5602 24.0144 12.4171 24.337 13.4026C23.9587 13.5206 23.529 13.6535 23.0639 13.7972Z" fill="white"/>
        <path d="M40.5739 18V12.1818H44.3011V13.0653H41.6278V14.6449H44.0455V15.5284H41.6278V18H40.5739ZM46.7953 12.1818V18H45.7414V12.1818H46.7953ZM53.1979 12.1818V18H52.2604L49.5189 14.0369H49.4707V18H48.4167V12.1818H49.3599L52.0985 16.1477H52.1496V12.1818H53.1979ZM56.798 18H54.8264V12.1818H56.8377C57.4154 12.1818 57.9116 12.2983 58.3264 12.5312C58.743 12.7623 59.0631 13.0947 59.2866 13.5284C59.5101 13.9621 59.6218 14.4811 59.6218 15.0852C59.6218 15.6913 59.5091 16.2121 59.2837 16.6477C59.0603 17.0833 58.7373 17.4176 58.315 17.6506C57.8945 17.8835 57.3889 18 56.798 18ZM55.8803 17.0881H56.7468C57.1521 17.0881 57.4902 17.0142 57.761 16.8665C58.0319 16.7169 58.2355 16.4943 58.3718 16.1989C58.5082 15.9015 58.5764 15.5303 58.5764 15.0852C58.5764 14.6402 58.5082 14.2708 58.3718 13.9773C58.2355 13.6818 58.0337 13.4612 57.7667 13.3153C57.5016 13.1676 57.172 13.0938 56.7781 13.0938H55.8803V17.0881ZM64.6216 12.1818V18H63.5676V12.1818H64.6216ZM65.9872 13.0653V12.1818H70.6293V13.0653H68.831V18H67.7855V13.0653H65.9872ZM79.6674 15.0909C79.6674 15.7178 79.55 16.2547 79.3151 16.7017C79.0822 17.1468 78.764 17.4877 78.3606 17.7244C77.9591 17.9612 77.5036 18.0795 76.9941 18.0795C76.4846 18.0795 76.0282 17.9612 75.6248 17.7244C75.2233 17.4858 74.9051 17.1439 74.6703 16.6989C74.4373 16.2519 74.3208 15.7159 74.3208 15.0909C74.3208 14.464 74.4373 13.928 74.6703 13.483C74.9051 13.036 75.2233 12.6941 75.6248 12.4574C76.0282 12.2206 76.4846 12.1023 76.9941 12.1023C77.5036 12.1023 77.9591 12.2206 78.3606 12.4574C78.764 12.6941 79.0822 13.036 79.3151 13.483C79.55 13.928 79.6674 14.464 79.6674 15.0909ZM78.6078 15.0909C78.6078 14.6496 78.5386 14.2775 78.4004 13.9744C78.264 13.6695 78.0746 13.4394 77.8322 13.2841C77.5898 13.1269 77.3104 13.0483 76.9941 13.0483C76.6778 13.0483 76.3985 13.1269 76.1561 13.2841C75.9136 13.4394 75.7233 13.6695 75.585 13.9744C75.4487 14.2775 75.3805 14.6496 75.3805 15.0909C75.3805 15.5322 75.4487 15.9053 75.585 16.2102C75.7233 16.5133 75.9136 16.7434 76.1561 16.9006C76.3985 17.0559 76.6778 17.1335 76.9941 17.1335C77.3104 17.1335 77.5898 17.0559 77.8322 16.9006C78.0746 16.7434 78.264 16.5133 78.4004 16.2102C78.5386 15.9053 78.6078 15.5322 78.6078 15.0909ZM85.9251 12.1818V18H84.9876L82.2461 14.0369H82.1978V18H81.1439V12.1818H82.087L84.8257 16.1477H84.8768V12.1818H85.9251ZM89.7622 13.0653V12.1818H94.4043V13.0653H92.606V18H91.5605V13.0653H89.7622ZM95.7792 18V12.1818H96.8332V14.6449H99.5292V12.1818H100.586V18H99.5292V15.5284H96.8332V18H95.7792ZM102.212 18V12.1818H105.996V13.0653H103.266V14.6449H105.8V15.5284H103.266V17.1165H106.019V18H102.212Z" fill="white"/>
        <path d="M47.1484 25.9567C47.0916 25.4524 46.8572 25.0618 46.4453 24.7848C46.0334 24.5043 45.5149 24.364 44.8899 24.364C44.4425 24.364 44.0554 24.435 43.7287 24.5771C43.402 24.7156 43.1481 24.9073 42.967 25.1523C42.7894 25.3938 42.7006 25.669 42.7006 25.978C42.7006 26.2372 42.761 26.4609 42.8817 26.6491C43.006 26.8374 43.1676 26.9954 43.3665 27.1232C43.5689 27.2475 43.7855 27.3523 44.0163 27.4375C44.2472 27.5192 44.4691 27.5866 44.6822 27.6399L45.7475 27.9169C46.0955 28.0021 46.4524 28.1175 46.8182 28.2631C47.1839 28.4087 47.5231 28.6005 47.8356 28.8384C48.1481 29.0763 48.4002 29.3711 48.592 29.7227C48.7873 30.0742 48.8849 30.495 48.8849 30.9851C48.8849 31.603 48.7251 32.1516 48.4055 32.631C48.0895 33.1104 47.6296 33.4886 47.0259 33.7656C46.4258 34.0426 45.6996 34.1811 44.8473 34.1811C44.0305 34.1811 43.3239 34.0515 42.7273 33.7923C42.1307 33.533 41.6637 33.1655 41.3263 32.6896C40.989 32.2102 40.8026 31.642 40.767 30.9851H42.4183C42.4503 31.3793 42.5781 31.7077 42.8018 31.9705C43.0291 32.2298 43.3185 32.4233 43.6701 32.5511C44.0252 32.6754 44.4141 32.7376 44.8366 32.7376C45.3018 32.7376 45.7156 32.6648 46.0778 32.5192C46.4435 32.37 46.7312 32.1641 46.9407 31.9013C47.1502 31.6349 47.255 31.3242 47.255 30.9691C47.255 30.646 47.1626 30.3814 46.978 30.1754C46.7969 29.9695 46.5501 29.799 46.2376 29.6641C45.9286 29.5291 45.5788 29.4102 45.1882 29.3072L43.8991 28.9556C43.0256 28.7177 42.3331 28.3679 41.8217 27.9062C41.3139 27.4446 41.06 26.8338 41.06 26.0739C41.06 25.4453 41.2305 24.8967 41.5714 24.4279C41.9123 23.9592 42.3739 23.5952 42.9563 23.3359C43.5387 23.0732 44.1957 22.9418 44.9272 22.9418C45.6658 22.9418 46.3175 23.0714 46.8821 23.3306C47.4503 23.5898 47.8977 23.9467 48.2244 24.4013C48.5511 24.8523 48.7216 25.3707 48.7358 25.9567H47.1484ZM52.3167 29.142V34H50.724V23.0909H52.2954V27.1499H52.3966C52.5883 26.7095 52.8813 26.3597 53.2755 26.1005C53.6697 25.8413 54.1846 25.7116 54.8202 25.7116C55.3813 25.7116 55.8714 25.8271 56.2904 26.0579C56.713 26.2887 57.0397 26.6332 57.2705 27.0913C57.5049 27.5458 57.6221 28.114 57.6221 28.7958V34H56.0294V28.9876C56.0294 28.3874 55.8749 27.9222 55.566 27.592C55.257 27.2582 54.8273 27.0913 54.2769 27.0913C53.9005 27.0913 53.5631 27.1712 53.2648 27.331C52.9701 27.4908 52.7375 27.7251 52.567 28.0341C52.4001 28.3395 52.3167 28.7088 52.3167 29.142ZM63.1938 34.1651C62.4268 34.1651 61.7574 33.9893 61.1856 33.6378C60.6139 33.2862 60.17 32.7944 59.854 32.1623C59.5379 31.5302 59.3799 30.7915 59.3799 29.9464C59.3799 29.0977 59.5379 28.3555 59.854 27.7198C60.17 27.0842 60.6139 26.5906 61.1856 26.239C61.7574 25.8874 62.4268 25.7116 63.1938 25.7116C63.9608 25.7116 64.6302 25.8874 65.202 26.239C65.7737 26.5906 66.2176 27.0842 66.5336 27.7198C66.8497 28.3555 67.0077 29.0977 67.0077 29.9464C67.0077 30.7915 66.8497 31.5302 66.5336 32.1623C66.2176 32.7944 65.7737 33.2862 65.202 33.6378C64.6302 33.9893 63.9608 34.1651 63.1938 34.1651ZM63.1991 32.8281C63.6963 32.8281 64.1082 32.6967 64.4349 32.4339C64.7616 32.1712 65.0031 31.8214 65.1594 31.3846C65.3192 30.9478 65.3991 30.4666 65.3991 29.9411C65.3991 29.419 65.3192 28.9396 65.1594 28.5028C65.0031 28.0625 64.7616 27.7092 64.4349 27.4428C64.1082 27.1765 63.6963 27.0433 63.1991 27.0433C62.6984 27.0433 62.2829 27.1765 61.9527 27.4428C61.626 27.7092 61.3827 28.0625 61.2229 28.5028C61.0667 28.9396 60.9885 29.419 60.9885 29.9411C60.9885 30.4666 61.0667 30.9478 61.2229 31.3846C61.3827 31.8214 61.626 32.1712 61.9527 32.4339C62.2829 32.6967 62.6984 32.8281 63.1991 32.8281ZM68.7855 37.0682V25.8182H70.3409V27.1445H70.4741C70.5664 26.9741 70.6996 26.777 70.8736 26.5533C71.0476 26.3295 71.2891 26.1342 71.598 25.9673C71.907 25.7969 72.3153 25.7116 72.8232 25.7116C73.4837 25.7116 74.0732 25.8786 74.5916 26.2124C75.1101 26.5462 75.5167 27.0273 75.8114 27.6559C76.1097 28.2844 76.2589 29.0408 76.2589 29.9251C76.2589 30.8093 76.1115 31.5675 75.8168 32.1996C75.522 32.8281 75.1172 33.3129 74.6023 33.6538C74.0874 33.9911 73.4996 34.1598 72.8391 34.1598C72.342 34.1598 71.9354 34.0763 71.6193 33.9094C71.3068 33.7425 71.0618 33.5472 70.8842 33.3235C70.7067 33.0998 70.57 32.9009 70.4741 32.7269H70.3782V37.0682H68.7855ZM70.3462 29.9091C70.3462 30.4844 70.4297 30.9886 70.5966 31.4219C70.7635 31.8551 71.005 32.1942 71.321 32.4393C71.6371 32.6808 72.0241 32.8015 72.4822 32.8015C72.9581 32.8015 73.3558 32.6754 73.6754 32.4233C73.995 32.1676 74.2365 31.8214 74.3999 31.3846C74.5668 30.9478 74.6502 30.456 74.6502 29.9091C74.6502 29.3693 74.5685 28.8846 74.4052 28.4549C74.2454 28.0252 74.0039 27.6861 73.6808 27.4375C73.3612 27.1889 72.9616 27.0646 72.4822 27.0646C72.0206 27.0646 71.63 27.1836 71.3104 27.4215C70.9943 27.6594 70.7546 27.9915 70.5913 28.4176C70.4279 28.8437 70.3462 29.3409 70.3462 29.9091ZM78.0433 34V25.8182H79.636V34H78.0433ZM78.8477 24.5558C78.5707 24.5558 78.3327 24.4634 78.1339 24.2788C77.9386 24.0906 77.8409 23.8668 77.8409 23.6076C77.8409 23.3448 77.9386 23.1211 78.1339 22.9364C78.3327 22.7482 78.5707 22.6541 78.8477 22.6541C79.1246 22.6541 79.3608 22.7482 79.5561 22.9364C79.755 23.1211 79.8544 23.3448 79.8544 23.6076C79.8544 23.8668 79.755 24.0906 79.5561 24.2788C79.3608 24.4634 79.1246 24.5558 78.8477 24.5558ZM85.6725 25.8182V27.0966H81.0489V25.8182H85.6725ZM82.3167 34V24.87C82.3167 24.3587 82.4285 23.9343 82.6523 23.5969C82.876 23.256 83.1725 23.0021 83.5418 22.8352C83.9111 22.6648 84.3124 22.5795 84.7457 22.5795C85.0653 22.5795 85.3387 22.6062 85.566 22.6594C85.7932 22.7092 85.9619 22.7553 86.072 22.7979L85.6991 24.087C85.6246 24.0657 85.5287 24.0408 85.4115 24.0124C85.2943 23.9805 85.1523 23.9645 84.9854 23.9645C84.5983 23.9645 84.3213 24.0604 84.1544 24.2521C83.991 24.4439 83.9094 24.7209 83.9094 25.0831V34H82.3167ZM88.3225 37.0682C88.0846 37.0682 87.868 37.0487 87.6727 37.0096C87.4774 36.9741 87.3318 36.935 87.2359 36.8924L87.6194 35.5874C87.9106 35.6655 88.1698 35.6992 88.3971 35.6886C88.6244 35.6779 88.825 35.5927 88.999 35.4329C89.1766 35.2731 89.3328 35.0121 89.4678 34.6499L89.6649 34.1065L86.6713 25.8182H88.3758L90.4479 32.1676H90.5331L92.6052 25.8182H94.3151L90.9433 35.092C90.787 35.5181 90.5882 35.8786 90.3467 36.1733C90.1052 36.4716 89.8176 36.6953 89.4838 36.8445C89.1499 36.9936 88.7629 37.0682 88.3225 37.0682ZM100.831 34H99.0838L103.01 23.0909H104.911L108.837 34H107.09L104.006 25.0724H103.92L100.831 34ZM101.124 29.728H106.792V31.1129H101.124V29.728ZM110.285 37.0682V25.8182H111.84V27.1445H111.973C112.065 26.9741 112.199 26.777 112.373 26.5533C112.547 26.3295 112.788 26.1342 113.097 25.9673C113.406 25.7969 113.814 25.7116 114.322 25.7116C114.983 25.7116 115.572 25.8786 116.091 26.2124C116.609 26.5462 117.016 27.0273 117.31 27.6559C117.609 28.2844 117.758 29.0408 117.758 29.9251C117.758 30.8093 117.611 31.5675 117.316 32.1996C117.021 32.8281 116.616 33.3129 116.101 33.6538C115.586 33.9911 114.999 34.1598 114.338 34.1598C113.841 34.1598 113.434 34.0763 113.118 33.9094C112.806 33.7425 112.561 33.5472 112.383 33.3235C112.206 33.0998 112.069 32.9009 111.973 32.7269H111.877V37.0682H110.285ZM111.845 29.9091C111.845 30.4844 111.929 30.9886 112.096 31.4219C112.263 31.8551 112.504 32.1942 112.82 32.4393C113.136 32.6808 113.523 32.8015 113.981 32.8015C114.457 32.8015 114.855 32.6754 115.174 32.4233C115.494 32.1676 115.736 31.8214 115.899 31.3846C116.066 30.9478 116.149 30.456 116.149 29.9091C116.149 29.3693 116.068 28.8846 115.904 28.4549C115.744 28.0252 115.503 27.6861 115.18 27.4375C114.86 27.1889 114.461 27.0646 113.981 27.0646C113.52 27.0646 113.129 27.1836 112.809 27.4215C112.493 27.6594 112.254 27.9915 112.09 28.4176C111.927 28.8437 111.845 29.3409 111.845 29.9091ZM119.542 37.0682V25.8182H121.098V27.1445H121.231C121.323 26.9741 121.456 26.777 121.63 26.5533C121.804 26.3295 122.046 26.1342 122.355 25.9673C122.664 25.7969 123.072 25.7116 123.58 25.7116C124.241 25.7116 124.83 25.8786 125.348 26.2124C125.867 26.5462 126.274 27.0273 126.568 27.6559C126.867 28.2844 127.016 29.0408 127.016 29.9251C127.016 30.8093 126.868 31.5675 126.574 32.1996C126.279 32.8281 125.874 33.3129 125.359 33.6538C124.844 33.9911 124.256 34.1598 123.596 34.1598C123.099 34.1598 122.692 34.0763 122.376 33.9094C122.064 33.7425 121.819 33.5472 121.641 33.3235C121.464 33.0998 121.327 32.9009 121.231 32.7269H121.135V37.0682H119.542ZM121.103 29.9091C121.103 30.4844 121.187 30.9886 121.353 31.4219C121.52 31.8551 121.762 32.1942 122.078 32.4393C122.394 32.6808 122.781 32.8015 123.239 32.8015C123.715 32.8015 124.113 32.6754 124.432 32.4233C124.752 32.1676 124.993 31.8214 125.157 31.3846C125.324 30.9478 125.407 30.456 125.407 29.9091C125.407 29.3693 125.325 28.8846 125.162 28.4549C125.002 28.0252 124.761 27.6861 124.438 27.4375C124.118 27.1889 123.718 27.0646 123.239 27.0646C122.777 27.0646 122.387 27.1836 122.067 27.4215C121.751 27.6594 121.511 27.9915 121.348 28.4176C121.185 28.8437 121.103 29.3409 121.103 29.9091ZM138.848 25.9567C138.791 25.4524 138.556 25.0618 138.145 24.7848C137.733 24.5043 137.214 24.364 136.589 24.364C136.142 24.364 135.755 24.435 135.428 24.5771C135.101 24.7156 134.847 24.9073 134.666 25.1523C134.489 25.3938 134.4 25.669 134.4 25.978C134.4 26.2372 134.46 26.4609 134.581 26.6491C134.705 26.8374 134.867 26.9954 135.066 27.1232C135.268 27.2475 135.485 27.3523 135.716 27.4375C135.946 27.5192 136.168 27.5866 136.381 27.6399L137.447 27.9169C137.795 28.0021 138.152 28.1175 138.517 28.2631C138.883 28.4087 139.222 28.6005 139.535 28.8384C139.847 29.0763 140.099 29.3711 140.291 29.7227C140.487 30.0742 140.584 30.495 140.584 30.9851C140.584 31.603 140.424 32.1516 140.105 32.631C139.789 33.1104 139.329 33.4886 138.725 33.7656C138.125 34.0426 137.399 34.1811 136.547 34.1811C135.73 34.1811 135.023 34.0515 134.426 33.7923C133.83 33.533 133.363 33.1655 133.026 32.6896C132.688 32.2102 132.502 31.642 132.466 30.9851H134.118C134.15 31.3793 134.277 31.7077 134.501 31.9705C134.728 32.2298 135.018 32.4233 135.369 32.5511C135.724 32.6754 136.113 32.7376 136.536 32.7376C137.001 32.7376 137.415 32.6648 137.777 32.5192C138.143 32.37 138.43 32.1641 138.64 31.9013C138.849 31.6349 138.954 31.3242 138.954 30.9691C138.954 30.646 138.862 30.3814 138.677 30.1754C138.496 29.9695 138.249 29.799 137.937 29.6641C137.628 29.5291 137.278 29.4102 136.887 29.3072L135.598 28.9556C134.725 28.7177 134.032 28.3679 133.521 27.9062C133.013 27.4446 132.759 26.8338 132.759 26.0739C132.759 25.4453 132.93 24.8967 133.271 24.4279C133.612 23.9592 134.073 23.5952 134.656 23.3359C135.238 23.0732 135.895 22.9418 136.626 22.9418C137.365 22.9418 138.017 23.0714 138.581 23.3306C139.15 23.5898 139.597 23.9467 139.924 24.4013C140.25 24.8523 140.421 25.3707 140.435 25.9567H138.848ZM146.242 25.8182V27.0966H141.773V25.8182H146.242ZM142.972 23.858H144.565V31.5977C144.565 31.9066 144.611 32.1392 144.703 32.2955C144.795 32.4482 144.914 32.5529 145.06 32.6097C145.209 32.663 145.371 32.6896 145.545 32.6896C145.672 32.6896 145.784 32.6808 145.88 32.663C145.976 32.6452 146.051 32.631 146.104 32.6204L146.392 33.9361C146.299 33.9716 146.168 34.0071 145.997 34.0426C145.827 34.0817 145.614 34.103 145.358 34.1065C144.939 34.1136 144.549 34.0391 144.186 33.8828C143.824 33.7266 143.531 33.4851 143.307 33.1584C143.084 32.8317 142.972 32.4215 142.972 31.9279V23.858ZM151.363 34.1651C150.596 34.1651 149.926 33.9893 149.355 33.6378C148.783 33.2862 148.339 32.7944 148.023 32.1623C147.707 31.5302 147.549 30.7915 147.549 29.9464C147.549 29.0977 147.707 28.3555 148.023 27.7198C148.339 27.0842 148.783 26.5906 149.355 26.239C149.926 25.8874 150.596 25.7116 151.363 25.7116C152.13 25.7116 152.799 25.8874 153.371 26.239C153.943 26.5906 154.387 27.0842 154.703 27.7198C155.019 28.3555 155.177 29.0977 155.177 29.9464C155.177 30.7915 155.019 31.5302 154.703 32.1623C154.387 32.7944 153.943 33.2862 153.371 33.6378C152.799 33.9893 152.13 34.1651 151.363 34.1651ZM151.368 32.8281C151.865 32.8281 152.277 32.6967 152.604 32.4339C152.931 32.1712 153.172 31.8214 153.328 31.3846C153.488 30.9478 153.568 30.4666 153.568 29.9411C153.568 29.419 153.488 28.9396 153.328 28.5028C153.172 28.0625 152.931 27.7092 152.604 27.4428C152.277 27.1765 151.865 27.0433 151.368 27.0433C150.867 27.0433 150.452 27.1765 150.122 27.4428C149.795 27.7092 149.552 28.0625 149.392 28.5028C149.236 28.9396 149.157 29.419 149.157 29.9411C149.157 30.4666 149.236 30.9478 149.392 31.3846C149.552 31.8214 149.795 32.1712 150.122 32.4339C150.452 32.6967 150.867 32.8281 151.368 32.8281ZM156.954 34V25.8182H158.494V27.1179H158.579C158.728 26.6776 158.991 26.3313 159.367 26.0792C159.747 25.8235 160.177 25.6957 160.657 25.6957C160.756 25.6957 160.873 25.6992 161.008 25.7063C161.147 25.7134 161.255 25.7223 161.333 25.733V27.2564C161.269 27.2386 161.155 27.2191 160.992 27.1978C160.829 27.1729 160.665 27.1605 160.502 27.1605C160.126 27.1605 159.79 27.2404 159.495 27.4002C159.204 27.5565 158.973 27.7749 158.803 28.0554C158.632 28.3324 158.547 28.6484 158.547 29.0036V34H156.954ZM165.945 34.1651C165.138 34.1651 164.444 33.9929 163.862 33.6484C163.283 33.3004 162.836 32.8121 162.52 32.1836C162.207 31.5515 162.051 30.8111 162.051 29.9624C162.051 29.1243 162.207 28.3857 162.52 27.7464C162.836 27.1072 163.276 26.6083 163.841 26.2496C164.409 25.891 165.073 25.7116 165.833 25.7116C166.294 25.7116 166.742 25.788 167.175 25.9407C167.608 26.0934 167.997 26.3331 168.342 26.6598C168.686 26.9865 168.958 27.4109 169.157 27.9329C169.355 28.4513 169.455 29.0817 169.455 29.8239V30.3885H162.951V29.1953H167.894C167.894 28.7763 167.809 28.4052 167.638 28.082C167.468 27.7553 167.228 27.4979 166.919 27.3097C166.614 27.1214 166.255 27.0273 165.843 27.0273C165.396 27.0273 165.005 27.1374 164.672 27.3576C164.341 27.5742 164.086 27.8583 163.904 28.2099C163.727 28.5579 163.638 28.9361 163.638 29.3445V30.2766C163.638 30.8235 163.734 31.2887 163.926 31.6722C164.121 32.0558 164.393 32.3487 164.741 32.5511C165.089 32.75 165.495 32.8494 165.961 32.8494C166.262 32.8494 166.538 32.8068 166.786 32.7216C167.035 32.6328 167.25 32.5014 167.431 32.3274C167.612 32.1534 167.75 31.9386 167.846 31.6829L169.354 31.9545C169.233 32.3984 169.016 32.7873 168.704 33.1211C168.395 33.4513 168.006 33.7088 167.537 33.8935C167.072 34.0746 166.541 34.1651 165.945 34.1651Z" fill="white"/>
</svg>